<svg xmlns="http://www.w3.org/2000/svg" width="165.503" height="90.135" viewBox="0 0 165.503 90.135">
  <g id="dumbell" transform="translate(2 2)">
    <path id="Caminho_8" data-name="Caminho 8" d="M15.767,94.135h0A10.8,10.8,0,0,1,5,83.368v-64.6A10.8,10.8,0,0,1,15.767,8h0A10.8,10.8,0,0,1,26.534,18.767v64.6A10.8,10.8,0,0,1,15.767,94.135Z" transform="translate(16.534 -8)" fill="none" stroke="#ff9204" stroke-linecap="round" stroke-linejoin="round" stroke-miterlimit="10" stroke-width="4"/>
    <path id="Caminho_9" data-name="Caminho 9" d="M11.767,64.834h0A10.8,10.8,0,0,1,1,54.067v-32.3A10.8,10.8,0,0,1,11.767,11h0A10.8,10.8,0,0,1,22.534,21.767v32.3A10.8,10.8,0,0,1,11.767,64.834Z" transform="translate(-1 5.15)" fill="none" stroke="#ff9204" stroke-linecap="round" stroke-linejoin="round" stroke-miterlimit="10" stroke-width="4"/>
    <path id="Caminho_10" data-name="Caminho 10" d="M33.767,8h0A10.8,10.8,0,0,1,44.534,18.767v64.6A10.8,10.8,0,0,1,33.767,94.135h0A10.8,10.8,0,0,1,23,83.368v-64.6A10.8,10.8,0,0,1,33.767,8Z" transform="translate(95.435 -8)" fill="none" stroke="#ff9204" stroke-linecap="round" stroke-linejoin="round" stroke-miterlimit="10" stroke-width="4"/>
    <path id="Caminho_11" data-name="Caminho 11" d="M37.767,11h0A10.8,10.8,0,0,1,48.534,21.767v32.3A10.8,10.8,0,0,1,37.767,64.834h0A10.8,10.8,0,0,1,27,54.067v-32.3A10.8,10.8,0,0,1,37.767,11Z" transform="translate(112.969 5.15)" fill="none" stroke="#ff9204" stroke-linecap="round" stroke-linejoin="round" stroke-miterlimit="10" stroke-width="4"/>
    <line id="Linha_10" data-name="Linha 10" x2="75" transform="translate(43 42.851)" fill="none" stroke="#ff9204" stroke-linecap="round" stroke-linejoin="round" stroke-miterlimit="10" stroke-width="4"/>
  </g>
</svg>
