<svg xmlns="http://www.w3.org/2000/svg" width="34.6" height="43.171" viewBox="0 0 34.6 43.171">
  <g id="gym" transform="translate(0.5 0.5)">
    <circle id="Elipse_1" data-name="Elipse 1" cx="10" cy="10" r="10" transform="translate(8)" fill="none" stroke="#ff9204" stroke-linecap="round" stroke-linejoin="round" stroke-miterlimit="10" stroke-width="1"/>
    <path id="Caminho_1" data-name="Caminho 1" d="M27.9,12.4a34.906,34.906,0,0,0,3.08,6.02l1.68,2.66A19.347,19.347,0,0,1,35.6,31.44h0L24.82,36.48a15.48,15.48,0,0,1-14.42-.84h0L9,38.44" transform="translate(-2 3.56)" fill="none" stroke="#ff9204" stroke-linecap="round" stroke-linejoin="round" stroke-miterlimit="10" stroke-width="1"/>
    <path id="Caminho_2" data-name="Caminho 2" d="M11,20.2h3.36a9.159,9.159,0,0,1,7.84,4.2h1.4c-.98-2.8-1.4-2.8-1.4-8.4" transform="translate(-1.2 5)" fill="none" stroke="#ff9204" stroke-linecap="round" stroke-linejoin="round" stroke-miterlimit="10" stroke-width="1"/>
    <circle id="Elipse_2" data-name="Elipse 2" cx="3" cy="3" r="3" transform="translate(15 7)" fill="none" stroke="#ff9204" stroke-linecap="round" stroke-linejoin="round" stroke-miterlimit="10" stroke-width="1"/>
    <line id="Linha_1" data-name="Linha 1" x2="1.96" y2="1.96" transform="translate(14.28 5.88)" fill="none" stroke="#ff9204" stroke-linecap="round" stroke-linejoin="round" stroke-miterlimit="10" stroke-width="1"/>
    <line id="Linha_2" data-name="Linha 2" y1="1.96" x2="1.96" transform="translate(14.28 11.76)" fill="none" stroke="#ff9204" stroke-linecap="round" stroke-linejoin="round" stroke-miterlimit="10" stroke-width="1"/>
    <line id="Linha_3" data-name="Linha 3" x1="1.96" y1="1.96" transform="translate(20.16 11.76)" fill="none" stroke="#ff9204" stroke-linecap="round" stroke-linejoin="round" stroke-miterlimit="10" stroke-width="1"/>
    <line id="Linha_4" data-name="Linha 4" x1="1.96" y2="1.96" transform="translate(20.16 5.88)" fill="none" stroke="#ff9204" stroke-linecap="round" stroke-linejoin="round" stroke-miterlimit="10" stroke-width="1"/>
    <path id="Caminho_3" data-name="Caminho 3" d="M4,14a10.12,10.12,0,0,1,6.86,2.8,9.721,9.721,0,0,1,2.94,7" transform="translate(-4 4.2)" fill="none" stroke="#ff9204" stroke-linecap="round" stroke-linejoin="round" stroke-miterlimit="10" stroke-width="1"/>
  </g>
</svg>
